<svg xmlns="http://www.w3.org/2000/svg" version="1.1"
  xmlns:xlink="http://www.w3.org/1999/xlink"
  xmlns:svgjs="http://svgjs.com/svgjs" width="512" height="512" x="0" y="0" viewBox="0 0 512 512" style="enable-background:new 0 0 512 512" xml:space="preserve" class="">
  <g>
    <g xmlns="http://www.w3.org/2000/svg">
      <g>
        <path d="m138.474 512c-1.199 0-2.406-.144-3.598-.438-5.102-1.26-9.171-5.098-10.729-10.116l-26.847-86.498-86.498-26.848c-5.019-1.558-8.855-5.627-10.115-10.728-1.261-5.101.239-10.489 3.955-14.204l186.767-186.767c2.813-2.813 6.628-4.394 10.606-4.394s7.794 1.581 10.606 4.394l123.225 123.225c5.858 5.858 5.858 15.355 0 21.213l-186.766 186.767c-2.846 2.848-6.676 4.394-10.606 4.394z" fill="#06b6d4" data-original="#ff3980" style="" class=""></path>
      </g>
      <g>
        <path d="m373.527 512c-3.93 0-7.76-1.547-10.606-4.394l-186.767-186.766c-5.858-5.858-5.858-15.355 0-21.213l123.225-123.225c2.813-2.813 6.628-4.394 10.606-4.394s7.794 1.581 10.606 4.394l186.767 186.767c3.716 3.715 5.216 9.104 3.955 14.204-1.26 5.101-5.097 9.17-10.115 10.728l-86.498 26.848-26.847 86.498c-1.558 5.018-5.627 8.855-10.729 10.116-1.191.293-2.399.437-3.597.437z" fill="#06b6d4" data-original="#cc0099" style="" class=""></path>
      </g>
      <ellipse clip-rule="evenodd" cx="256" cy="202" fill="#fff26c" fill-rule="evenodd" rx="187" ry="187" transform="matrix(.707 -.707 .707 .707 -67.855 240.184)" data-original="#fff26c" style="" class=""></ellipse>
      <path clip-rule="evenodd" d="m256.001 15v374c102.996 0 186.999-84.004 186.999-187s-84.003-187-186.999-187z" fill="#fff26c" fill-rule="evenodd" data-original="#ffdb00" style="" class=""></path>
      <path d="m256 404c-111.383 0-202-90.617-202-202s90.617-202 202-202 202 90.617 202 202-90.617 202-202 202zm0-374c-94.841 0-172 77.159-172 172s77.159 172 172 172 172-77.159 172-172-77.159-172-172-172z" fill="#ff8856" data-original="#fdbf00" style="" class=""></path>
      <path d="m256 346c-79.402 0-144-64.598-144-144s64.598-144 144-144 144 64.598 144 144-64.597 144-144 144z" fill="#ff8856" data-original="#fdbf00" style="" class=""></path>
      <path d="m256.001 0v30c94.841 0 171.999 77.159 171.999 172s-77.159 172-171.999 172v30c111.383 0 201.999-90.617 201.999-202s-90.616-202-201.999-202z" fill="#ff8856" data-original="#ff8856" style="" class=""></path>
      <path d="m256.001 58v288c79.402 0 143.999-64.598 143.999-144s-64.597-143.999-143.999-144z" fill="#ff8856" data-original="#ff8856" style="" class=""></path>
      <path d="m298.644 278.246c-1.765 0-3.538-.311-5.238-.945l-37.406-13.944-37.405 13.944c-4.71 1.756-9.987 1.036-14.056-1.92-4.068-2.955-6.385-7.752-6.17-12.775l1.703-39.883-24.82-31.266c-3.126-3.938-4.071-9.18-2.518-13.961s5.399-8.467 10.243-9.815l38.457-10.706 22.065-33.267c2.779-4.19 7.473-6.709 12.5-6.709s9.721 2.519 12.5 6.709l22.065 33.267 38.457 10.706c4.844 1.349 8.689 5.034 10.243 9.815s.608 10.024-2.518 13.961l-24.82 31.265 1.703 39.883c.215 5.023-2.102 9.82-6.17 12.775-2.597 1.89-5.691 2.866-8.815 2.866z" fill="#fff26c" data-original="#fff26c" style="" class=""></path>
      <path d="m339.266 177.497c-1.554-4.782-5.399-8.467-10.243-9.815l-38.457-10.706-22.066-33.267c-2.779-4.19-7.472-6.709-12.499-6.709v146.358l37.404 13.943c1.7.634 3.474.945 5.238.945 3.124 0 6.218-.976 8.817-2.865 4.068-2.955 6.385-7.752 6.17-12.775l-1.703-39.883 24.82-31.265c3.127-3.937 4.073-9.18 2.519-13.961z" fill="#fff26c" data-original="#ffdb00" style="" class=""></path>
    </g>
  </g>
</svg>
